<svg width="38" height="60" viewBox="0 0 38 60" fill="none" xmlns="http://www.w3.org/2000/svg">
<path d="M18.9598 34.8333H18.9993C25.1094 34.8333 30.0827 29.8617 30.0827 23.75V14.25C30.0827 8.16842 25.1316 3.20784 19.0294 3.16667H18.9344C12.8544 3.20151 7.91602 8.16526 7.91602 14.25V23.75C7.91602 29.8617 12.8703 34.8333 18.9598 34.8333ZM11.0827 14.25C11.0856 12.1554 11.9173 10.147 13.3962 8.66367C14.8751 7.18032 16.881 6.34254 18.9756 6.33334C23.3535 6.34284 26.916 9.89426 26.916 14.25V23.75C26.916 28.1153 23.3646 31.6667 18.9993 31.6667H18.9598C14.5438 31.6667 11.0827 28.1897 11.0827 23.75V14.25Z" fill="white"/>
<path d="M17.416 11.0833C17.416 10.2089 18.1249 9.5 18.9993 9.5C19.8738 9.5 20.5827 10.2089 20.5827 11.0833V17.4167C20.5827 18.2911 19.8738 19 18.9993 19C18.1249 19 17.416 18.2911 17.416 17.4167V11.0833Z" fill="white"/>
<path d="M11 40L19 48L27 40" stroke="white" stroke-width="4" stroke-linecap="round" stroke-linejoin="round"/>
<path d="M11 50L19 58L27 50" stroke="white" stroke-opacity="0.6" stroke-width="4" stroke-linecap="round" stroke-linejoin="round"/>
</svg>
