<svg width="147" height="147" viewBox="0 0 147 147" fill="none" xmlns="http://www.w3.org/2000/svg">
<path d="M73.5 134.75C39.6716 134.75 12.25 107.328 12.25 73.5C12.25 39.6716 39.6716 12.25 73.5 12.25C107.328 12.25 134.75 39.6716 134.75 73.5C134.75 107.328 107.328 134.75 73.5 134.75ZM65.0597 51.5419C64.6911 51.2959 64.2627 51.1546 63.8201 51.1329C63.3775 51.1111 62.9373 51.2099 62.5463 51.4185C62.1554 51.6272 61.8284 51.938 61.6001 52.3178C61.3718 52.6976 61.2508 53.1322 61.25 53.5754V93.4246C61.2508 93.8678 61.3718 94.3024 61.6001 94.6822C61.8284 95.062 62.1554 95.3728 62.5463 95.5815C62.9373 95.7901 63.3775 95.8889 63.8201 95.8671C64.2627 95.8454 64.6911 95.7041 65.0597 95.4581L94.9436 75.5396C95.2797 75.316 95.5553 75.0128 95.7459 74.6569C95.9365 74.3011 96.0363 73.9037 96.0363 73.5C96.0363 73.0963 95.9365 72.6989 95.7459 72.3431C95.5553 71.9872 95.2797 71.684 94.9436 71.4604L65.0536 51.5419H65.0597Z" fill="white" fill-opacity="0.9"/>
</svg>
