<svg width="32" height="32" viewBox="0 0 32 32" fill="none" xmlns="http://www.w3.org/2000/svg">
<path d="M9.33268 9.33335V4.00002C9.33268 3.6464 9.47316 3.30726 9.72321 3.05721C9.97326 2.80716 10.3124 2.66669 10.666 2.66669H27.9993C28.353 2.66669 28.6921 2.80716 28.9422 3.05721C29.1922 3.30726 29.3327 3.6464 29.3327 4.00002V21.3334C29.3327 21.687 29.1922 22.0261 28.9422 22.2762C28.6921 22.5262 28.353 22.6667 27.9993 22.6667H22.666V27.9907C22.666 28.732 22.0674 29.3334 21.3234 29.3334H4.00868C3.83231 29.3335 3.65764 29.2989 3.49466 29.2315C3.33168 29.1641 3.1836 29.0652 3.05888 28.9405C2.93417 28.8158 2.83528 28.6677 2.76786 28.5047C2.70045 28.3417 2.66584 28.1671 2.66602 27.9907L2.67002 10.676C2.67002 9.93469 3.26868 9.33335 4.01268 9.33335H9.33268ZM11.9993 9.33335H21.3234C22.0647 9.33335 22.666 9.93202 22.666 10.676V20H26.666V5.33335H11.9993V9.33335ZM19.9994 12H5.33668L5.33268 26.6667H19.9994V12Z" stroke="white"/>
</svg>
