<svg width="38" height="39" viewBox="0 0 38 39" fill="none" xmlns="http://www.w3.org/2000/svg">
<path d="M18.9598 35.3333H18.9993C25.1094 35.3333 30.0827 30.3616 30.0827 24.25V14.75C30.0827 8.66838 25.1316 3.70779 19.0294 3.66663H18.9344C12.8544 3.70146 7.91602 8.66521 7.91602 14.75V24.25C7.91602 30.3616 12.8703 35.3333 18.9598 35.3333ZM11.0827 14.75C11.0856 12.6553 11.9173 10.647 13.3962 9.16363C14.8751 7.68028 16.881 6.84249 18.9756 6.83329C23.3535 6.84279 26.916 10.3942 26.916 14.75V24.25C26.916 28.6152 23.3646 32.1666 18.9993 32.1666H18.9598C14.5438 32.1666 11.0827 28.6896 11.0827 24.25V14.75Z" fill="white"/>
<path d="M17.416 11.5833C17.416 10.7089 18.1249 10 18.9993 10C19.8738 10 20.5827 10.7089 20.5827 11.5833V17.9167C20.5827 18.7911 19.8738 19.5 18.9993 19.5C18.1249 19.5 17.416 18.7911 17.416 17.9167V11.5833Z" fill="white"/>
</svg>
