<svg width="38" height="38" viewBox="0 0 38 38" fill="none" xmlns="http://www.w3.org/2000/svg">
<path d="M25.7565 18.4295L16.8829 24.3452C16.8199 24.3871 16.7467 24.4112 16.671 24.4148C16.5954 24.4184 16.5202 24.4015 16.4534 24.3657C16.3867 24.33 16.3309 24.2768 16.292 24.2119C16.253 24.1469 16.2325 24.0726 16.2324 23.9969L16.2324 12.1655C16.2325 12.0897 16.253 12.0154 16.292 11.9505C16.3309 11.8856 16.3867 11.8324 16.4534 11.7966C16.5202 11.7609 16.5954 11.7439 16.671 11.7475C16.7467 11.7512 16.8199 11.7752 16.8829 11.8172L25.7565 17.7329C25.8138 17.7711 25.8609 17.8229 25.8934 17.8837C25.9259 17.9444 25.9429 18.0123 25.9429 18.0812C25.9429 18.1501 25.9259 18.2179 25.8934 18.2787C25.8609 18.3394 25.8138 18.3912 25.7565 18.4295Z" fill="#D9CBAC"/>
<circle cx="20" cy="18.5" r="17.5" stroke="#D9CBAC" stroke-opacity="0.5"/>
<path d="M23.5172 36.2858C20.0075 36.8112 16.414 36.3656 13.1601 35.0013C9.90611 33.637 7.12725 31.411 5.15083 28.5854C3.17442 25.7598 2.08278 22.4524 2.00452 19.0527C1.92627 15.653 2.86465 12.3028 4.70912 9.39661" stroke="#E06822" stroke-width="3" stroke-linecap="round"/>
<path d="M23.5172 36.2858C20.0075 36.8112 16.414 36.3656 13.1601 35.0013C9.90611 33.637 7.12725 31.411 5.15083 28.5854C3.17442 25.7598 2.08278 22.4524 2.00452 19.0527C1.92627 15.653 2.86465 12.3028 4.70912 9.39661" stroke="url(#paint0_linear)" stroke-width="3" stroke-linecap="round"/>
<defs>
<linearGradient id="paint0_linear" x1="17.5137" y1="10.5058" x2="14.4678" y2="35.7038" gradientUnits="userSpaceOnUse">
<stop stop-color="#9C3F2D"/>
<stop offset="1" stop-color="white" stop-opacity="0"/>
</linearGradient>
</defs>
</svg>
